<?xml version="1.0" encoding="UTF-8"?>
<svg width="219px" height="50px" viewBox="0 0 219 50" version="1.1" xmlns="http://www.w3.org/2000/svg" xmlns:xlink="http://www.w3.org/1999/xlink">
    <title>Group 55</title>
    <defs>
        <polygon id="path-1" points="0.708292484 0 25.7353894 0 25.7353894 25.0273829 0.708292484 25.0273829"></polygon>
        <polygon id="path-3" points="0 0 25.0270016 0 25.0270016 25.0273829 0 25.0273829"></polygon>
        <polygon id="path-5" points="0 0.707720588 25.0270016 0.707720588 25.0270016 25.7348175 0 25.7348175"></polygon>
        <polygon id="path-7" points="0.505210084 0.203336397 6.4039916 0.203336397 6.4039916 14.0241544 0.505210084 14.0241544"></polygon>
    </defs>
    <g id="Page-1" stroke="none" stroke-width="1" fill="none" fill-rule="evenodd">
        <g id="01_JDAA_home-page_new-approach-Copy-14" transform="translate(-160.000000, -108.000000)">
            <g id="Group-55" transform="translate(160.000000, 108.000000)">
                <g id="Group-3" transform="translate(24.264706, 0.000000)">
                    <mask id="mask-2" fill="white">
                        <use xlink:href="#path-1"></use>
                    </mask>
                    <g id="Clip-2"></g>
                    <path d="M13.2213644,0.491162854 C6.59214325,0.491162854 1.19821623,5.88413671 1.19821623,12.5133578 C1.19821623,19.142579 6.59214325,24.5374592 13.2213644,24.5374592 C19.8515387,24.5374592 25.2445125,19.142579 25.2445125,12.5133578 C25.2445125,5.88413671 19.8515387,0.491162854 13.2213644,0.491162854 M13.2213644,25.0273829 C6.32144608,25.0273829 0.708292484,19.4142293 0.708292484,12.5133578 C0.708292484,5.61343954 6.32144608,-0.000667211329 13.2213644,-0.000667211329 C20.1212827,-0.000667211329 25.7353894,5.61343954 25.7353894,12.5133578 C25.7353894,19.4142293 20.1212827,25.0273829 13.2213644,25.0273829" id="Fill-1" fill="#FFFFFF" mask="url(#mask-2)"></path>
                </g>
                <g id="Group-6">
                    <mask id="mask-4" fill="white">
                        <use xlink:href="#path-3"></use>
                    </mask>
                    <g id="Clip-5"></g>
                    <path d="M12.5139297,0.491162854 C5.88375545,0.491162854 0.49078159,5.88413671 0.49078159,12.5133578 C0.49078159,19.142579 5.88375545,24.5374592 12.5139297,24.5374592 C19.1431509,24.5374592 24.5370779,19.142579 24.5370779,12.5133578 C24.5370779,5.88413671 19.1431509,0.491162854 12.5139297,0.491162854 M12.5139297,25.0273829 C5.61401144,25.0273829 -9.53159041e-05,19.4142293 -9.53159041e-05,12.5133578 C-9.53159041e-05,5.61343954 5.61401144,-0.000667211329 12.5139297,-0.000667211329 C19.413848,-0.000667211329 25.0270016,5.61343954 25.0270016,12.5133578 C25.0270016,19.4142293 19.413848,25.0273829 12.5139297,25.0273829" id="Fill-4" fill="#FFFFFF" mask="url(#mask-4)"></path>
                </g>
                <path d="M37.4995239,25.4903454 C30.8774803,25.4903454 25.4893933,30.8774803 25.4893933,37.5004761 C25.4893933,44.1225197 30.8774803,49.5106067 37.4995239,49.5106067 C44.1225197,49.5106067 49.5096546,44.1225197 49.5096546,37.5004761 C49.5096546,30.8774803 44.1225197,25.4903454 37.4995239,25.4903454 M37.4995239,50 C30.6070762,50 25,44.3929238 25,37.5004761 C25,30.6080283 30.6070762,25 37.4995239,25 C44.3919717,25 50,30.6080283 50,37.5004761 C50,44.3929238 44.3919717,50 37.4995239,50" id="Fill-7" fill="#FFFFFF"></path>
                <g id="Group-11" transform="translate(0.000000, 24.264706)">
                    <mask id="mask-6" fill="white">
                        <use xlink:href="#path-5"></use>
                    </mask>
                    <g id="Clip-10"></g>
                    <path d="M12.5139297,1.19859749 C5.88375545,1.19859749 0.49078159,6.59157135 0.49078159,13.2217456 C0.49078159,19.8509668 5.88375545,25.2448938 12.5139297,25.2448938 C19.1431509,25.2448938 24.5370779,19.8509668 24.5370779,13.2217456 C24.5370779,6.59157135 19.1431509,1.19859749 12.5139297,1.19859749 M12.5139297,25.7348175 C5.61401144,25.7348175 -9.53159041e-05,20.1216639 -9.53159041e-05,13.2217456 C-9.53159041e-05,6.32182734 5.61401144,0.707720588 12.5139297,0.707720588 C19.413848,0.707720588 25.0270016,6.32182734 25.0270016,13.2217456 C25.0270016,20.1216639 19.413848,25.7348175 12.5139297,25.7348175" id="Fill-9" fill="#FFFFFF" mask="url(#mask-6)"></path>
                </g>
                <path d="M9.55882353,15.0059841 L10.6926242,15.0059841 C10.6926242,16.0386871 11.351976,16.6415834 12.5,16.6415834 C13.914203,16.6415834 14.3063598,15.6224942 14.3063598,14.6034049 L14.3063598,9.08009694 L11.3651834,9.08009694 L11.3651834,8.08823529 L15.4411765,8.08823529 L15.4411765,14.5771498 C15.4411765,16.1320388 14.6842934,17.6470588 12.458346,17.6470588 C10.9313725,17.6470588 9.55882353,16.8156454 9.55882353,15.0059841" id="Fill-12" fill="#FFFFFF"></path>
                <path d="M14.7044526,38.6343972 L12.9060391,33.3638754 L12.829255,33.3638754 L11.0299164,38.6343972 L14.7044526,38.6343972 Z M15.0495186,39.6453314 L10.6857755,39.6453314 L9.90775814,41.9117647 L8.82352941,41.9117647 L12.1529997,32.3529412 L13.6202239,32.3529412 L16.9117647,41.9117647 L15.827536,41.9117647 L15.0495186,39.6453314 Z" id="Fill-14" fill="#FFFFFF"></path>
                <path d="M38.9691585,38.6343972 L37.170745,33.3638754 L37.0939609,33.3638754 L35.2946223,38.6343972 L38.9691585,38.6343972 Z M39.3142245,39.6453314 L34.9504814,39.6453314 L34.172464,41.9117647 L33.0882353,41.9117647 L36.4177056,32.3529412 L37.8849298,32.3529412 L41.1764706,41.9117647 L40.0922419,41.9117647 L39.3142245,39.6453314 Z" id="Fill-16" fill="#FFFFFF"></path>
                <path d="M36.3882559,16.6638486 L34.9283499,16.6638486 L34.9283499,9.08530752 L36.3882559,9.08530752 C38.6799918,9.08530752 40.0439554,10.5596278 40.0439554,12.8676471 C40.0439554,15.2707198 38.6532862,16.6638486 36.3882559,16.6638486 M36.3882559,8.08823529 L33.8235294,8.08823529 L33.8235294,17.6470588 L36.3882559,17.6470588 C39.4168684,17.6470588 41.1764706,15.8301496 41.1764706,12.8676471 C41.1764706,10.0823798 39.4168684,8.08823529 36.3882559,8.08823529" id="Fill-18" fill="#FFFFFF"></path>
                <path d="M65.3797841,22.0588235 C68.6670205,22.0588235 69.8529412,19.8405239 69.8529412,17.5253595 L69.8529412,8.08823529 L63.6019013,8.08823529 L63.6019013,9.91332141 L67.769594,9.91332141 L67.769594,17.5646808 C67.769594,18.8805075 67.2175619,20.1944161 65.4416756,20.1944161 C63.9492922,20.1944161 63.112759,19.4099072 63.112759,18.0557182 L61.0294118,18.0557182 C61.0294118,20.7832773 63.0917957,22.0588235 65.3797841,22.0588235" id="Fill-20" fill="#FFFFFF"></path>
                <path d="M75.812796,17.0498185 L78.2123496,10.0255058 L78.3674646,10.0255058 L80.7660723,17.0498185 L75.812796,17.0498185 Z M82.4884164,22.0588235 L84.5588235,22.0588235 L79.7218835,8.08823529 L76.9553505,8.08823529 L72.0588235,22.0588235 L74.0913977,22.0588235 L75.1753111,18.90515 L81.404503,18.90515 L82.4884164,22.0588235 Z" id="Fill-22" fill="#FFFFFF"></path>
                <polygon id="Fill-24" fill="#FFFFFF" points="88.7880458 15.7724978 90.5321707 15.7724978 94.5798201 22.0588235 97.0588235 22.0588235 92.2181257 14.7940396 96.8193578 8.08823529 94.4004631 8.08823529 90.5321707 13.8965505 88.7880458 13.8965505 88.7880458 8.08823529 86.7647059 8.08823529 86.7647059 22.0588235 88.7880458 22.0588235"></polygon>
                <path d="M104.40134,22.0588235 C107.67855,22.0588235 109.558824,19.9039032 109.558824,16.7883672 L109.558824,8.08823529 L107.600837,8.08823529 L107.600837,16.7692123 C107.600837,18.8465556 106.495798,20.1778175 104.40134,20.1778175 C102.326784,20.1778175 101.221744,18.8465556 101.221744,16.7883672 L101.221744,8.08823529 L99.2647059,8.08823529 L99.2647059,16.8084798 C99.2647059,19.9431706 101.085273,22.0588235 104.40134,22.0588235" id="Fill-26" fill="#FFFFFF"></path>
                <path d="M116.392643,20.2433592 L116.392643,15.6525074 L118.917774,15.6525074 C120.295374,15.6525074 121.519594,16.3314774 121.519594,17.9284227 C121.519594,19.5048818 120.447817,20.2433592 119.052448,20.2433592 L116.392643,20.2433592 Z M116.392643,9.90467516 L118.936479,9.90467516 C120.18034,9.90467516 121.099675,10.7036355 121.099675,11.921099 C121.099675,13.1385625 120.218684,13.9970303 118.898134,13.9970303 L116.392643,13.9970303 L116.392643,9.90467516 Z M123.529412,17.9869546 C123.529412,16.1519796 122.399649,15.1530352 121.519594,14.7550183 L121.519594,14.635028 C122.476339,14.0555622 123.070212,13.0585689 123.070212,11.7620874 C123.070212,9.66566991 121.577579,8.08823529 118.955184,8.08823529 L113.235294,8.08823529 L113.235294,9.80614647 L114.48009,9.80614647 L114.48009,20.343839 L113.235294,20.343839 L113.235294,22.0588235 L119.338629,22.0588235 C121.558874,22.0588235 123.529412,20.562358 123.529412,17.9869546 L123.529412,17.9869546 Z" id="Fill-28" fill="#FFFFFF"></path>
                <path d="M78.4729233,34.6274701 L78.4729233,29.7985887 L80.8484776,29.7985887 C82.6138329,29.7985887 83.477322,30.8346032 83.477322,32.1310848 C83.477322,33.7699779 82.3979607,34.6274701 80.9453803,34.6274701 L78.4729233,34.6274701 Z M85.5391419,32.1125496 C85.5391419,29.6161643 83.7728271,27.9411765 80.9453803,27.9411765 L76.4705882,27.9411765 L76.4705882,41.9117647 L78.4729233,41.9117647 L78.4729233,36.4429345 L80.4359217,36.4429345 L83.6356283,41.9117647 L86.0294118,41.9117647 L82.4766341,36.2244154 C84.4789692,35.7249432 85.5391419,34.1270224 85.5391419,32.1125496 L85.5391419,32.1125496 Z" id="Fill-30" fill="#FFFFFF"></path>
                <path d="M94.495267,40.0436265 C91.679114,40.0436265 89.5601133,37.8895296 89.5601133,34.9264706 C89.5601133,32.0010377 91.679114,29.805552 94.495267,29.805552 C97.2943236,29.805552 99.4313705,32.0010377 99.4313705,34.9264706 C99.4313705,37.8895296 97.2943236,40.0436265 94.495267,40.0436265 M101.470588,34.9264706 C101.470588,31.0001822 98.4787225,27.9411765 94.495267,27.9411765 C90.5127613,27.9411765 87.5,30.962556 87.5,34.9264706 C87.5,38.9091982 90.4937653,41.9117647 94.476271,41.9117647 C98.4597265,41.9117647 101.470588,38.8706314 101.470588,34.9264706" id="Fill-32" fill="#FFFFFF"></path>
                <polygon id="Fill-34" fill="#FFFFFF" points="113.388985 41.9117647 115.441176 41.9117647 115.441176 27.9411765 113.388985 27.9411765 113.388985 33.867531 106.483813 33.867531 106.483813 27.9411765 104.411765 27.9411765 104.411765 41.9117647 106.483813 41.9117647 106.483813 35.7444538 113.388985 35.7444538"></polygon>
                <path d="M125.377144,29.805552 C128.176011,29.805552 130.312912,32.0010377 130.312912,34.9255299 C130.312912,37.8895296 128.176011,40.0436265 125.377144,40.0436265 C122.561183,40.0436265 120.442326,37.8895296 120.442326,34.9255299 C120.442326,32.0010377 122.561183,29.805552 125.377144,29.805552 M118.382353,34.9255299 C118.382353,38.9091982 121.375915,41.9117647 125.35815,41.9117647 C129.341334,41.9117647 132.352941,38.8706314 132.352941,34.9255299 C132.352941,31.0001822 129.360329,27.9411765 125.377144,27.9411765 C121.394909,27.9411765 118.382353,30.9616154 118.382353,34.9255299" id="Fill-36" fill="#FFFFFF"></path>
                <polygon id="Fill-38" fill="#FFFFFF" points="136.537314 29.8766312 136.67703 29.8766312 140.095667 41.9117647 143.013086 41.9117647 146.411205 29.8766312 146.571439 29.8766312 146.571439 41.9117647 148.529412 41.9117647 148.529412 27.9411765 145.012095 27.9411765 141.613975 39.9753345 141.473283 39.9753345 138.075164 27.9411765 134.558824 27.9411765 134.558824 41.9117647 136.537314 41.9117647"></polygon>
                <polygon id="Fill-40" fill="#FFFFFF" points="158.088235 40.0953248 156.120852 40.0953248 156.120852 29.7566408 158.088235 29.7566408 158.088235 27.9411765 152.205882 27.9411765 152.205882 29.7566408 154.173265 29.7566408 154.173265 40.0953248 152.205882 40.0953248 152.205882 41.9117647 158.088235 41.9117647"></polygon>
                <path d="M163.767041,29.7985887 L166.141636,29.7985887 C167.907951,29.7985887 168.77048,30.8346032 168.77048,32.1320603 C168.77048,33.7699779 167.692078,34.6274701 166.239498,34.6274701 L163.767041,34.6274701 L163.767041,29.7985887 Z M163.767041,36.44391 L165.72908,36.44391 L168.928787,41.9117647 L171.323529,41.9117647 L167.770752,36.2244154 C169.773087,35.7249432 170.8323,34.1270224 170.8323,32.1125496 C170.8323,29.6161643 169.065026,27.9411765 166.239498,27.9411765 L161.764706,27.9411765 L161.764706,41.9117647 L163.767041,41.9117647 L163.767041,36.44391 Z" id="Fill-42" fill="#FFFFFF"></path>
                <polygon id="Fill-44" fill="#FFFFFF" points="181.617647 40.0358174 175.48449 40.0358174 175.48449 35.7249432 180.602168 35.7249432 180.602168 33.867531 175.48449 33.867531 175.48449 29.8171238 181.425605 29.8171238 181.425605 27.9411765 173.529412 27.9411765 173.529412 41.9117647 181.617647 41.9117647"></polygon>
                <path d="M190.712295,41.9117647 C193.740334,41.9117647 196.190302,40.1438352 197.058824,37.3576085 L194.936084,37.3576085 C194.281628,39.0297203 192.620969,40.0470782 190.712295,40.0470782 C187.895492,40.0470782 185.868941,37.876151 185.868941,34.9170767 C185.868941,31.995578 187.895492,29.8030448 190.712295,29.8030448 C192.640772,29.8030448 194.260881,30.8420087 194.936084,32.4756056 L197.058824,32.4756056 C196.171441,29.7466815 193.759194,27.9411765 190.712295,27.9411765 C186.738406,27.9411765 183.823529,30.9763412 183.823529,34.9170767 C183.823529,38.8944483 186.71766,41.9117647 190.712295,41.9117647" id="Fill-46" fill="#FFFFFF"></path>
                <polygon id="Fill-48" fill="#FFFFFF" points="210.054652 27.9411765 207.635757 27.9411765 203.767465 33.7494917 202.02334 33.7494917 202.02334 27.9411765 200 27.9411765 200 41.9117647 202.02334 41.9117647 202.02334 35.6264145 203.767465 35.6264145 207.815114 41.9117647 210.294118 41.9117647 205.45342 34.6479563"></polygon>
                <g id="Group-52" transform="translate(211.764706, 27.941176)">
                    <mask id="mask-8" fill="white">
                        <use xlink:href="#path-7"></use>
                    </mask>
                    <g id="Clip-51"></g>
                    <polygon id="Fill-50" fill="#FFFFFF" mask="url(#mask-8)" points="6.40436975 1.99933824 6.40436975 0.203336397 0.505210084 0.203336397 0.505210084 1.99933824 2.47821429 1.99933824 2.47821429 12.2271875 0.505210084 12.2271875 0.505210084 14.0241544 6.40436975 14.0241544 6.40436975 12.2271875 4.43136555 12.2271875 4.43136555 1.99933824"></polygon>
                </g>
                <path d="M71.4231107,34.9269584 C71.4231107,38.1803563 69.5589019,40.0748387 66.4518873,40.0748387 L64.5465131,40.0748387 L64.5465131,29.7985887 L66.4518873,29.7985887 C69.6000674,29.7985887 71.4231107,31.7945263 71.4231107,34.9269584 L71.4231107,34.9269584 Z M62.5,27.9411765 L62.5,29.6981089 L62.5,40.1567833 L62.5,41.9117647 L66.4518873,41.9117647 C70.9428466,41.9117647 73.5294118,39.2563677 73.5294118,34.9269584 C73.5294118,30.8550894 70.9428466,27.9411765 66.4518873,27.9411765 L62.5,27.9411765 Z" id="Fill-53" fill="#FFFFFF"></path>
            </g>
        </g>
    </g>
</svg>