<?xml version="1.0" encoding="utf-8"?>
<!-- Generator: Adobe Illustrator 24.0.1, SVG Export Plug-In . SVG Version: 6.00 Build 0)  -->
<svg version="1.1" id="Layer_1" xmlns="http://www.w3.org/2000/svg" xmlns:xlink="http://www.w3.org/1999/xlink" x="0px" y="0px"
	 viewBox="0 0 70 71" style="enable-background:new 0 0 70 71;" xml:space="preserve">
<style type="text/css">
	.st0{fill-rule:evenodd;clip-rule:evenodd;fill:#FFFFFF;}
	.st1{fill-rule:evenodd;clip-rule:evenodd;}
	.st2{filter:url(#Adobe_OpacityMaskFilter);}
	.st3{mask:url(#mask-2_1_);fill-rule:evenodd;clip-rule:evenodd;}
</style>
<circle class="st0" cx="52" cy="53.1" r="17.3"/>
<title>Group 46</title>
<g id="Page-1">
	<g id="_x30_1_x5F_JDAA_x5F_home-page_x5F_new-approach-Copy-10" transform="translate(-159.000000, -4352.000000)">
		<g id="Group-21" transform="translate(140.000000, 4216.000000)">
			<g id="Group-46" transform="translate(19.000000, 136.000000)">
				<path id="Fill-1" class="st1" d="M21.2,21V12h-5.5v1.4h3.9v7.7c0,1.4-0.5,2.8-2.4,2.8c-1.5,0-2.4-0.8-2.4-2.3h-1.5
					c0,2.5,1.8,3.7,3.9,3.7C20.2,25.3,21.2,23.2,21.2,21"/>
				<path id="Fill-3" class="st1" d="M14.8,54.2l2.6-7.2h0.1l2.6,7.2H14.8z M16.5,45.6l-4.9,13.1h1.6l1.1-3.1h6.4l1.1,3.1h1.6
					l-4.8-13.1H16.5z"/>
				<path id="Fill-5" class="st1" d="M52,47l2.6,7.2h-5.4l2.6-7.2H52z M46,58.7h1.6l1.1-3.1h6.4l1.1,3.1h1.6l-4.8-13.1h-2.2L46,58.7
					z"/>
				<g id="Group-9" transform="translate(0.000000, 0.473600)">
					<g id="Clip-8">
					</g>
					<defs>
						<filter id="Adobe_OpacityMaskFilter" filterUnits="userSpaceOnUse" x="0" y="0.5" width="69.5" height="69.5">
							<feColorMatrix  type="matrix" values="1 0 0 0 0  0 1 0 0 0  0 0 1 0 0  0 0 0 1 0"/>
						</filter>
					</defs>
					<mask maskUnits="userSpaceOnUse" x="0" y="0.5" width="69.5" height="69.5" id="mask-2_1_">
						<g class="st2">
							<polygon id="path-1_1_" class="st0" points="0,0.5 69.5,0.5 69.5,70 0,70 							"/>
						</g>
					</mask>
					<path id="Fill-7" class="st3" d="M52,35C51.9,35,51.9,35,52,35c-9.4,0-16.9-7.5-17-16.8c0,0,0-0.1,0-0.1c0,0,0-0.1,0-0.1
						c0.1-9.3,7.6-16.8,17-16.8c9.4,0,17,7.6,17,17v0C68.9,27.4,61.3,35,52,35 M68.9,52.5L68.9,52.5c0,9.4-7.6,17-17,17
						c-9.3,0-16.9-7.5-17-16.8c0,0,0-0.1,0-0.1c0,0,0-0.1,0-0.1c0.1-9.3,7.6-16.8,16.8-16.8c0,0,0.1,0,0.1,0c0,0,0.1,0,0.1,0
						C61.4,35.6,68.9,43.2,68.9,52.5 M17.5,69.5c-9.4,0-17-7.6-17-17c0-9.3,7.5-16.9,16.8-17c0,0,0.1,0,0.1,0c0,0,0.1,0,0.1,0
						c9.3,0.1,16.8,7.6,16.8,17v0C34.5,61.9,26.9,69.5,17.5,69.5 M34.7,21.1c1.3,7.2,7,12.9,14.2,14.2c-7.2,1.3-12.9,7-14.2,14.2
						c-1.3-7.2-7-12.9-14.2-14.2C27.8,34,33.5,28.3,34.7,21.1 M0.5,18c0-9.4,7.6-17,17-17c9.4,0,17,7.6,17,17v0c0,9.4-7.6,17-17,17
						c0,0,0,0-0.1,0C8.1,35,0.5,27.4,0.5,18 M69.5,18c0-9.7-7.8-17.5-17.5-17.5c-8.6,0-15.8,6.2-17.2,14.4
						C33.3,6.8,26.1,0.5,17.5,0.5C7.8,0.5,0,8.4,0,18c0,8.6,6.2,15.8,14.4,17.2C6.2,36.7,0,43.9,0,52.5C0,62.2,7.8,70,17.5,70
						c8.6,0,15.8-6.2,17.2-14.4C36.2,63.8,43.3,70,52,70c9.7,0,17.5-7.8,17.5-17.5c0-8.6-6.2-15.8-14.4-17.2
						C63.2,33.8,69.5,26.7,69.5,18"/>
				</g>
				<path id="Fill-10" class="st1" d="M51.3,23.7L51.3,23.7l-2,0V13.3h2c3.2,0,5,2,5,5.2C56.3,21.8,54.4,23.7,51.3,23.7 M51.3,12
					h-3.5v13.1h3.5c4.2,0,6.6-2.5,6.6-6.6C57.8,14.7,55.4,12,51.3,12"/>
			</g>
		</g>
	</g>
</g>
</svg>
